<?xml version="1.0" standalone="no"?>
<!DOCTYPE svg PUBLIC "-//W3C//DTD SVG 20010904//EN"
 "http://www.w3.org/TR/2001/REC-SVG-20010904/DTD/svg10.dtd">
<svg version="1.0" xmlns="http://www.w3.org/2000/svg"
 width="1024.000000pt" height="1024.000000pt" viewBox="0 0 1024.000000 1024.000000"
 preserveAspectRatio="xMidYMid meet">
<metadata>
Created by potrace 1.11, written by Peter Selinger 2001-2013
</metadata>
<g transform="translate(0.000000,1024.000000) scale(0.100000,-0.100000)"
fill="#000000" stroke="none">
<path d="M4805 10234 c-598 -46 -1092 -158 -1600 -362 -1024 -411 -1913 -1172
-2482 -2125 -476 -798 -723 -1696 -723 -2627 0 -1677 808 -3230 2184 -4197
715 -502 1509 -799 2406 -899 191 -21 657 -29 865 -15 1564 109 2951 896 3863
2191 259 368 512 875 656 1315 117 360 193 716 236 1120 18 164 24 641 11 830
-40 566 -161 1099 -362 1598 -70 171 -114 268 -127 276 -5 3 -40 66 -77 140
-317 624 -823 1233 -1400 1683 -761 592 -1637 945 -2615 1054 -138 15 -712 27
-835 18z m3635 -2899 c0 -2 -408 -658 -907 -1457 -498 -799 -915 -1467 -925
-1484 l-18 -31 925 -1552 c509 -853 925 -1553 925 -1556 0 -3 -517 -5 -1148
-5 l-1148 0 -940 1491 c-516 820 -949 1512 -961 1538 -25 52 -29 92 -11 142 6
19 439 683 961 1477 l950 1442 1148 0 c632 0 1149 -2 1149 -5z"/>
</g>
</svg>
