<svg width="210" height="70" xmlns="http://www.w3.org/2000/svg"><g fill="none" fill-rule="evenodd"><rect stroke="#4A4A4A" fill="#000" x=".5" y=".5" width="209" height="69" rx="5"/><path d="M43.896 35.074c-.044-4.814 3.94-7.156 4.123-7.266-2.256-3.292-5.756-3.742-6.985-3.777-2.938-.308-5.787 1.759-7.285 1.759-1.526 0-3.83-1.727-6.314-1.676-3.195.049-6.188 1.9-7.828 4.774-3.384 5.859-.86 14.47 2.382 19.206 1.622 2.322 3.518 4.912 6 4.82 2.426-.1 3.333-1.548 6.262-1.548 2.904 0 3.754 1.547 6.285 1.49 2.604-.042 4.245-2.331 5.81-4.673 1.876-2.658 2.628-5.276 2.658-5.411-.061-.021-5.06-1.927-5.108-7.698M39.71 21.11c1.305-1.634 2.197-3.854 1.95-6.11-1.89.084-4.252 1.307-5.614 2.905-1.204 1.407-2.28 3.715-2.002 5.882 2.123.159 4.304-1.071 5.665-2.678m27.647 24.039h6.566l-3.237-9.532h-.09l-3.239 9.532zm7.425 2.71h-8.283l-1.99 5.874H61L68.847 32h3.645l7.846 21.732h-3.569l-1.988-5.873zm19.801-2.77c0-3.207-1.658-5.316-4.188-5.316-2.485 0-4.157 2.152-4.157 5.316 0 3.192 1.672 5.331 4.157 5.331 2.53 0 4.188-2.093 4.188-5.33m3.342 0c0 4.922-2.636 8.086-6.612 8.086-2.257 0-4.05-1.01-4.985-2.772h-.076v7.847H83V37.166h3.148v2.636h.06C87.11 38.1 89.039 37 91.253 37c4.022 0 6.671 3.178 6.671 8.088m13.658 0c0-3.207-1.658-5.316-4.188-5.316-2.485 0-4.157 2.152-4.157 5.316 0 3.192 1.672 5.331 4.157 5.331 2.53 0 4.188-2.093 4.188-5.33m3.342 0c0 4.922-2.636 8.086-6.612 8.086-2.257 0-4.05-1.01-4.985-2.772h-.076v7.847H100V37.166h3.148v2.636h.06C104.11 38.1 106.039 37 108.253 37c4.022 0 6.671 3.178 6.671 8.088m11.405 1.951c.241 2.154 2.334 3.57 5.195 3.57 2.74 0 4.713-1.416 4.713-3.358 0-1.687-1.19-2.697-4.006-3.388l-2.816-.68c-3.991-.964-5.843-2.83-5.843-5.859 0-3.748 3.267-6.324 7.907-6.324 4.592 0 7.74 2.576 7.847 6.325h-3.283c-.198-2.169-1.99-3.478-4.61-3.478s-4.412 1.325-4.412 3.252c0 1.536 1.145 2.441 3.945 3.132l2.396.588c4.457 1.056 6.31 2.846 6.31 6.026 0 4.065-3.239 6.611-8.39 6.611-4.819 0-8.072-2.487-8.282-6.417h3.328zM146.572 34v3.75h3.013v2.575h-3.013v8.734c0 1.358.604 1.99 1.928 1.99.331 0 .86-.046 1.07-.076v2.56c-.36.091-1.083.151-1.806.151-3.208 0-4.46-1.204-4.46-4.277v-9.082H141V37.75h2.305V34h3.267zm17.144 11.118c0-3.42-1.568-5.437-4.202-5.437-2.635 0-4.201 2.034-4.201 5.437 0 3.434 1.566 5.436 4.202 5.436 2.633 0 4.201-2.002 4.201-5.436m-11.716 0c0-4.985 2.935-8.118 7.514-8.118 4.594 0 7.517 3.133 7.517 8.118 0 4.998-2.909 8.119-7.517 8.119-4.607 0-7.514-3.12-7.514-8.119m17-7.952h3.101v2.697h.075c.499-1.792 1.945-2.863 3.812-2.863.467 0 .857.061 1.114.122v3.042c-.257-.107-.829-.196-1.46-.196-2.094 0-3.39 1.416-3.39 3.645v9.398H169V37.166zm12.299 6.491h7.92c-.075-2.425-1.625-4.021-3.885-4.021-2.245 0-3.869 1.627-4.035 4.021zm10.993 4.729c-.437 2.876-3.237 4.85-6.821 4.85-4.61 0-7.471-3.088-7.471-8.043 0-4.97 2.877-8.193 7.334-8.193 4.384 0 7.14 3.012 7.14 7.815v1.115h-11.191v.196c0 2.711 1.703 4.489 4.263 4.489 1.806 0 3.224-.86 3.66-2.23h3.086zM64.622 23.965h1.969c2.184 0 3.444-1.36 3.444-3.755 0-2.36-1.281-3.735-3.444-3.735h-1.969v7.49zM66.773 15c3.096 0 4.912 1.902 4.912 5.189 0 3.335-1.802 5.253-4.912 5.253H63V15h3.773zm13.06 7.088c0-1.708-.767-2.707-2.114-2.707-1.351 0-2.112.999-2.112 2.707 0 1.722.76 2.712 2.112 2.712 1.347 0 2.114-.997 2.114-2.712m-5.833 0C74 19.547 75.42 18 77.719 18c2.296 0 3.713 1.547 3.713 4.088 0 2.553-1.412 4.095-3.713 4.095-2.307 0-3.719-1.542-3.719-4.095m17.757 3.792h-1.614l-1.629-5.803h-.122l-1.623 5.803h-1.597L83 18h1.577l1.412 6.013h.117L87.725 18h1.493l1.62 6.013h.123L92.366 18h1.554zM95 18.152h1.496v1.251h.118c.383-.875 1.165-1.403 2.352-1.403 1.758 0 2.726 1.057 2.726 2.931v5.101h-1.554v-4.71c0-1.267-.551-1.896-1.701-1.896s-1.881.767-1.881 1.997v4.61H95v-7.88zm9 7.805h1.556V15H104zm9.833-3.869c0-1.708-.767-2.707-2.114-2.707-1.351 0-2.112.999-2.112 2.707 0 1.722.76 2.712 2.112 2.712 1.347 0 2.114-.997 2.114-2.712m-5.833 0c0-2.541 1.42-4.088 3.719-4.088 2.296 0 3.715 1.547 3.715 4.088 0 2.553-1.414 4.095-3.715 4.095-2.307 0-3.719-1.542-3.719-4.095m14.066 1.043v-.658l-1.925.123c-1.085.071-1.577.44-1.577 1.135 0 .71.617 1.122 1.462 1.122 1.172 0 2.04-.745 2.04-1.722m-5.066.674c0-1.42 1.057-2.237 2.931-2.352l2.135-.125v-.679c0-.833-.55-1.303-1.613-1.303-.868 0-1.47.32-1.642.876h-1.507c.16-1.354 1.434-2.222 3.22-2.222 1.976 0 3.091.983 3.091 2.65v5.382h-1.498v-1.107h-.123c-.47.789-1.331 1.237-2.367 1.237-1.52 0-2.627-.917-2.627-2.357m10.606-1.793c0 1.672.788 2.678 2.106 2.678 1.31 0 2.12-1.02 2.12-2.67 0-1.644-.818-2.678-2.12-2.678-1.31 0-2.105 1.013-2.105 2.67m-1.607 0c0-2.49 1.28-4.067 3.27-4.067 1.079 0 1.99.513 2.418 1.383h.115V15h1.556v10.955h-1.49v-1.244h-.124c-.469.86-1.39 1.375-2.474 1.375-2.004 0-3.271-1.578-3.271-4.074m19.833.076c0-1.708-.767-2.707-2.114-2.707-1.351 0-2.112.999-2.112 2.707 0 1.722.76 2.712 2.112 2.712 1.347 0 2.114-.997 2.114-2.712m-5.833 0c0-2.541 1.42-4.088 3.719-4.088 2.296 0 3.713 1.547 3.713 4.088 0 2.553-1.412 4.095-3.713 4.095-2.307 0-3.719-1.542-3.719-4.095m9-3.936h1.496v1.251h.117c.384-.875 1.166-1.403 2.352-1.403 1.76 0 2.727 1.057 2.727 2.931v5.101h-1.554v-4.71c0-1.267-.551-1.896-1.701-1.896s-1.881.767-1.881 1.997v4.61H149v-7.88zM164.807 16v1.998h1.708v1.31h-1.708v4.053c0 .824.34 1.186 1.115 1.186.238 0 .376-.016.593-.037v1.297a5.204 5.204 0 0 1-.847.079c-1.729 0-2.418-.61-2.418-2.128v-4.45H162v-1.31h1.25V16h1.557zM169 15h1.542v4.342h.122c.384-.882 1.217-1.41 2.403-1.41 1.678 0 2.714 1.063 2.714 2.938v5.087h-1.557v-4.704c0-1.259-.587-1.897-1.685-1.897-1.274 0-1.983.805-1.983 1.998v4.603H169V15zm9.584 6.365h3.98c-.036-1.237-.788-2.042-1.94-2.042-1.15 0-1.953.812-2.04 2.042zm5.47 2.54c-.353 1.412-1.613 2.28-3.414 2.28-2.257 0-3.64-1.549-3.64-4.067 0-2.519 1.41-4.118 3.633-4.118 2.193 0 3.516 1.498 3.516 3.972v.543h-5.565v.087c.05 1.383.854 2.258 2.098 2.258.942 0 1.586-.34 1.876-.955h1.496z" fill="#FFFFFE"/></g></svg>