<svg width="140" height="140" xmlns="http://www.w3.org/2000/svg"><g fill="none"><path d="M110.28 140H29.72C13.308 140 0 126.693 0 110.28V29.72C0 13.308 13.307 0 29.72 0h80.56C126.692 0 140 13.307 140 29.72v80.56c0 16.413-13.307 29.72-29.72 29.72" fill="#000"/><path d="M69.812 18.444c-28.502 0-51.687 23.188-51.687 51.687 0 28.502 23.185 51.69 51.687 51.69s51.69-23.188 51.69-51.69c0-28.5-23.188-51.687-51.69-51.687m0 2.32c27.265 0 49.369 22.102 49.369 49.367 0 27.265-22.104 49.369-49.369 49.369S20.446 97.396 20.446 70.13s22.101-49.366 49.366-49.366" fill="#FEFEFE"/><path fill="#FEFEFE" d="M68.986 105.95h34.907V71.043H68.986z"/></g></svg>