<svg width="149" height="18" xmlns="http://www.w3.org/2000/svg"><path d="M5.26 17.168c-2.976 0-4.8-1.968-5.04-5.328H1.9c.144 2.424 1.344 3.744 3.36 3.744 2.04 0 3.36-1.32 3.36-4.584V.2h1.68V11c0 4.176-1.992 6.168-5.04 6.168zm13.32 0c-2.616 0-4.32-1.704-4.32-4.968V5h1.584v7.2c0 2.328 1.152 3.48 2.976 3.48 2.04 0 3.456-1.416 3.456-3.48V5h1.584v12h-1.224l-.192-1.968c-.792 1.368-2.184 2.136-3.864 2.136zM27.94 17V5h1.224l.192 1.968c.792-1.368 2.208-2.136 3.984-2.136 2.736 0 4.44 1.704 4.44 4.968V17h-1.584V9.8c0-2.328-1.152-3.48-3.096-3.48-2.112 0-3.504 1.344-3.576 3.336V17H27.94zm18.36.168c-3.192 0-5.28-2.088-5.28-5.64v-1.056c0-3.528 2.112-5.64 5.28-5.64 3.192 0 5.28 2.088 5.28 5.64v1.056c0 3.528-2.112 5.64-5.28 5.64zm0-1.488c2.16 0 3.648-1.488 3.648-4.152v-1.056c0-2.64-1.512-4.152-3.648-4.152-2.16 0-3.648 1.488-3.648 4.152v1.056c0 2.64 1.512 4.152 3.648 4.152zm21 1.488c-3.96 0-6.84-2.88-6.84-7.8V7.832c0-4.896 2.904-7.8 6.84-7.8 3.552 0 5.88 2.328 6.36 4.848h-1.824c-.48-1.68-2.064-3.264-4.536-3.264-2.928 0-5.112 2.184-5.112 6.216v1.536c0 4.008 2.208 6.216 5.112 6.216 2.424 0 4.056-1.632 4.536-3.744h1.824c-.48 2.976-2.832 5.328-6.36 5.328zm14.28 0c-3.192 0-5.28-2.088-5.28-5.64v-1.056c0-3.528 2.112-5.64 5.28-5.64 3.192 0 5.28 2.088 5.28 5.64v1.056c0 3.528-2.112 5.64-5.28 5.64zm0-1.488c2.16 0 3.648-1.488 3.648-4.152v-1.056c0-2.64-1.512-4.152-3.648-4.152-2.16 0-3.648 1.488-3.648 4.152v1.056c0 2.64 1.512 4.152 3.648 4.152zM90.22 17V5h1.224l.192 1.968c.792-1.368 2.208-2.136 3.984-2.136 2.736 0 4.44 1.704 4.44 4.968V17h-1.584V9.8c0-2.328-1.152-3.48-3.096-3.48-2.112 0-3.504 1.344-3.576 3.336V17H90.22zm13.8 0V5h1.224l.192 1.968c.792-1.368 2.208-2.136 3.984-2.136 2.736 0 4.44 1.704 4.44 4.968V17h-1.584V9.8c0-2.328-1.152-3.48-3.096-3.48-2.112 0-3.504 1.344-3.576 3.336V17h-1.584zm18.24.168c-3.144 0-5.16-2.016-5.16-5.64v-1.056c0-3.6 2.04-5.64 5.16-5.64s5.16 2.04 5.16 5.64v.984h-8.688v.072c0 2.76 1.392 4.152 3.528 4.152 1.992 0 2.928-.936 3.408-2.184h1.632c-.48 2.064-2.088 3.672-5.04 3.672zm0-10.848c-2.064 0-3.384 1.344-3.528 3.744h7.032c-.12-2.496-1.488-3.744-3.504-3.744zm12.96 10.848c-3.072 0-5.16-2.088-5.16-5.64v-1.056c0-3.528 2.112-5.64 5.16-5.64 2.664 0 4.2 1.536 4.68 3.408h-1.68c-.48-1.104-1.296-1.92-3-1.92-2.04 0-3.528 1.488-3.528 4.152v1.056c0 2.64 1.512 4.152 3.528 4.152 1.704 0 2.52-.816 3-2.16h1.68c-.48 2.112-2.016 3.648-4.68 3.648zm6.24-10.728V5h2.16V1.64h1.584V5h3.216v1.44h-3.216v7.2c0 1.32.6 1.92 1.776 1.92h1.68V17h-1.872c-2.064 0-3.168-1.104-3.168-3.168V6.44h-2.16z" fill="#FFF"/></svg>