<svg width="52" height="18" xmlns="http://www.w3.org/2000/svg"><path d="M5.06 17.168c-2.976 0-4.8-1.968-5.04-5.328H1.7c.144 2.424 1.344 3.744 3.36 3.744 2.04 0 3.36-1.32 3.36-4.584V.2h1.68V11c0 4.176-1.992 6.168-5.04 6.168zm13.32 0c-2.616 0-4.32-1.704-4.32-4.968V5h1.584v7.2c0 2.328 1.152 3.48 2.976 3.48 2.04 0 3.456-1.416 3.456-3.48V5h1.584v12h-1.224l-.192-1.968c-.792 1.368-2.184 2.136-3.864 2.136zM27.74 17V5h1.224l.192 1.968c.792-1.368 2.208-2.136 3.984-2.136 2.736 0 4.44 1.704 4.44 4.968V17h-1.584V9.8c0-2.328-1.152-3.48-3.096-3.48-2.112 0-3.504 1.344-3.576 3.336V17H27.74zm18.36.168c-3.192 0-5.28-2.088-5.28-5.64v-1.056c0-3.528 2.112-5.64 5.28-5.64 3.192 0 5.28 2.088 5.28 5.64v1.056c0 3.528-2.112 5.64-5.28 5.64zm0-1.488c2.16 0 3.648-1.488 3.648-4.152v-1.056c0-2.64-1.512-4.152-3.648-4.152-2.16 0-3.648 1.488-3.648 4.152v1.056c0 2.64 1.512 4.152 3.648 4.152z" fill="#FFF"/></svg>