<svg width="156" height="19" xmlns="http://www.w3.org/2000/svg" xmlns:xlink="http://www.w3.org/1999/xlink"><defs><path id="a" d="M0 .179h8.374v13.837H0z"/><path id="c" d="M.289.138h11.547V12.2H.289z"/></defs><g fill="none" fill-rule="evenodd"><path fill="#FEFEFE" d="M5.423 2.875h2.95V0h-2.95zm46.31 8.183c0 1.18-.882 2.004-2.057 2.004h-2.314c-1.175 0-2.056-.86-2.056-2.004V8.624c0-1.18.881-2.004 2.056-2.004h2.314c1.212 0 2.057.823 2.057 2.004v2.434zm-3.269-6.37c-3.636 0-5.472 1.825-5.472 5.153 0 3.364 1.836 5.153 5.472 5.153 3.6 0 5.51-1.86 5.51-5.153 0-3.328-1.8-5.153-5.51-5.153zm-12.948 0h-.771c-2.314 0-3.159 1.431-3.38 1.86h-.072V4.904h-4.187V6.87h2.13v7.873h2.057V8.589c0-1.146.918-2.04 2.056-2.04h1.69c1.138 0 2.056.894 2.056 2.04v6.155h2.094V8.267c0-2.255-1.359-3.579-3.673-3.579"/><g transform="translate(0 4.724)"><mask id="b" fill="#fff"><use xlink:href="#a"/></mask><path d="M3.159.179v1.968h3.158v9.842H0v2.027h6.317a2.035 2.035 0 0 0 2.057-2.04V.18H3.159z" fill="#FEFEFE" mask="url(#b)"/></g><g transform="translate(143.852 2.544)"><mask id="d" fill="#fff"><use xlink:href="#c"/></mask><path d="M11.836 4.327V2.36H5.518V.138H3.462v2.221H.289v1.968h3.173v5.833c0 1.145.918 2.04 2.056 2.04h6.318v-2.027H5.518V4.327h6.318z" fill="#EF7200" mask="url(#d)"/></g><path d="M21.703 11.058c0 1.145-.918 2.04-2.056 2.04h-1.69a2.035 2.035 0 0 1-2.057-2.04V4.902h-4.187v1.969h2.094v4.509c0 2.254 1.359 3.578 3.673 3.578h.77c2.315 0 3.16-1.431 3.38-1.86h.073v1.646h2.057V4.902h-2.057v6.156z" fill="#FEFEFE"/><path d="M108.674 4.688h-.77c-2.315 0-3.16 1.431-3.38 1.86h-.073V4.904h-4.187V6.87h2.13v7.873h2.057V8.589c0-1.146.918-2.04 2.057-2.04h1.689c1.138 0 2.057.894 2.057 2.04v6.155h2.093V8.267c0-2.255-1.359-3.579-3.673-3.579m-28.519 6.37c0 1.18-.881 2.004-2.057 2.004h-2.313c-1.176 0-2.057-.86-2.057-2.004V8.624c0-1.18.881-2.004 2.057-2.004h2.313c1.212 0 2.057.823 2.057 2.004v2.434zm-3.268-6.37c-3.637 0-5.473 1.825-5.473 5.153 0 3.364 1.836 5.153 5.473 5.153 3.599 0 5.509-1.86 5.509-5.153 0-3.328-1.8-5.153-5.51-5.153zm16.494 0h-.77c-2.314 0-3.16 1.431-3.38 1.86h-.073V4.904H84.97V6.87h2.13v7.873h2.057V8.589c0-1.146.918-2.04 2.057-2.04h1.69c1.137 0 2.056.894 2.056 2.04v6.155h2.093V8.267c0-2.255-1.359-3.579-3.673-3.579m27.158 1.932h2.314c1.212 0 2.057.823 2.057 2.004v.359h-6.428v-.359c0-1.18.882-2.004 2.057-2.004m1.102-1.932c-3.636 0-5.472 1.825-5.472 5.153 0 3.247 1.789 5.142 5.225 5.142 2.158 0 5.055-.34 5.055-.34v-1.88s-2.724.299-5.175.299h-.735c-1.175 0-2.057-.86-2.057-2.004v-.41h8.617l.039-.467c.004-.113.012-.224.012-.34 0-3.328-1.8-5.153-5.51-5.153m-53.764.44S65.16 4.7 63.002 4.7c-3.437 0-5.226 1.894-5.226 5.141s1.79 5.142 5.226 5.142c2.158 0 5.054-.34 5.054-.34v-1.88s-2.724.299-5.174.299h-.735c-1.176 0-2.057-.86-2.057-2.004V8.624c0-1.145.881-2.004 2.056-2.004h.736c1.085 0 2.043.076 2.975.161v2.077h2.02V5.164h-.002v-.036zm72.887 0s-2.715-.428-4.873-.428c-3.437 0-5.226 1.894-5.226 5.141s1.79 5.142 5.226 5.142c2.158 0 5.054-.34 5.054-.34v-1.88s-2.724.299-5.174.299h-.735c-1.176 0-2.057-.86-2.057-2.004V8.624c0-1.145.881-2.004 2.057-2.004h.735c1.085 0 2.043.076 2.975.161v2.077h2.02V5.164h-.002v-.036z" fill="#EF7200"/></g></svg>