<svg width="54" height="19" xmlns="http://www.w3.org/2000/svg" xmlns:xlink="http://www.w3.org/1999/xlink"><defs><path id="a" d="M.156.275h10.976v10.307H.156z"/><path id="c" d="M0 .179h8.37v13.837H0z"/></defs><g fill="none" fill-rule="evenodd"><path fill="#FEFEFE" d="M5.42 2.875h2.95V0H5.42z"/><g transform="translate(42.817 4.413)"><mask id="b" fill="#fff"><use xlink:href="#a"/></mask><path d="M8.893 6.645c0 1.181-.881 2.004-2.056 2.004H4.524C3.35 8.65 2.47 7.79 2.47 6.645V4.212c0-1.181.88-2.004 2.055-2.004h2.313c1.211 0 2.056.823 2.056 2.004v2.433zM5.625.275C1.991.275.155 2.1.155 5.43c0 3.363 1.836 5.153 5.47 5.153 3.598 0 5.507-1.861 5.507-5.153 0-3.33-1.799-5.155-5.507-5.155z" fill="#FEFEFE" mask="url(#b)"/></g><path d="M35.5 4.688h-.77c-2.314 0-3.158 1.431-3.378 1.86h-.074V4.904h-4.185V6.87h2.13v7.873h2.055V8.589c0-1.145.918-2.04 2.056-2.04h1.689c1.138 0 2.055.895 2.055 2.04v6.155h2.093V8.266c0-2.254-1.358-3.578-3.671-3.578" fill="#FEFEFE"/><g transform="translate(0 4.724)"><mask id="d" fill="#fff"><use xlink:href="#c"/></mask><path d="M3.157.179v1.968h3.157v9.842H0v2.028h6.314a2.034 2.034 0 0 0 2.056-2.04V.179H3.157z" fill="#FEFEFE" mask="url(#d)"/></g><path d="M21.693 11.058c0 1.145-.917 2.04-2.056 2.04H17.95a2.034 2.034 0 0 1-2.056-2.04V4.903h-4.185V6.87h2.093v4.509c0 2.254 1.358 3.578 3.67 3.578h.772c2.312 0 3.157-1.431 3.377-1.86h.073v1.645h2.056v-9.84h-2.056v6.155z" fill="#FEFEFE"/></g></svg>