<svg width="16" height="16" xmlns="http://www.w3.org/2000/svg"><path d="M5.717 14.19c5.661 0 8.757-4.689 8.757-8.755 0-.134-.003-.266-.01-.398A6.26 6.26 0 0 0 16 3.443a6.144 6.144 0 0 1-1.767.485 3.088 3.088 0 0 0 1.353-1.703 6.163 6.163 0 0 1-1.954.747A3.078 3.078 0 0 0 8.388 5.78a8.738 8.738 0 0 1-6.344-3.215 3.076 3.076 0 0 0 .953 4.108 3.054 3.054 0 0 1-1.394-.385v.04A3.079 3.079 0 0 0 4.07 9.342a3.08 3.08 0 0 1-1.39.053 3.081 3.081 0 0 0 2.875 2.138A6.175 6.175 0 0 1 1 12.808a8.713 8.713 0 0 0 4.717 1.383" fill="#FFF" fill-rule="evenodd"/></svg>