<?xml version="1.0" encoding="UTF-8" standalone="no"?>
<!DOCTYPE svg PUBLIC "-//W3C//DTD SVG 1.1//EN" "http://www.w3.org/Graphics/SVG/1.1/DTD/svg11.dtd">
<svg width="100%" height="100%" viewBox="0 0 179 60" version="1.1" xmlns="http://www.w3.org/2000/svg" xmlns:xlink="http://www.w3.org/1999/xlink" xml:space="preserve" xmlns:serif="http://www.serif.com/" style="fill-rule:evenodd;clip-rule:evenodd;stroke-linejoin:round;stroke-miterlimit:1.41421;">
    <g transform="matrix(1.49585,0,0,1.5,0,0)">
        <g>
            <g>
                <path d="M110.135,0L9.535,0C9.168,0 8.806,0 8.44,0.002C8.134,0.004 7.83,0.01 7.521,0.015C6.85,0.023 6.18,0.082 5.517,0.191C4.856,0.304 4.215,0.515 3.616,0.818C3.019,1.124 2.472,1.522 1.998,1.997C1.52,2.471 1.122,3.018 0.819,3.618C0.515,4.217 0.305,4.859 0.194,5.521C0.083,6.183 0.023,6.853 0.015,7.523C0.006,7.83 0.005,8.138 0,8.444L0,31.559C0.005,31.869 0.006,32.17 0.015,32.481C0.023,33.151 0.083,33.821 0.194,34.482C0.304,35.145 0.515,35.788 0.819,36.387C1.122,36.985 1.52,37.53 1.998,38.001C2.471,38.478 3.017,38.876 3.616,39.18C4.215,39.484 4.855,39.697 5.517,39.81C6.18,39.919 6.85,39.978 7.521,39.987C7.83,39.994 8.134,39.998 8.44,39.998C8.806,40 9.168,40 9.535,40L110.135,40C110.494,40 110.859,40 111.219,39.998C111.523,39.998 111.836,39.994 112.141,39.987C112.811,39.979 113.479,39.92 114.141,39.81C114.804,39.696 115.448,39.483 116.049,39.18C116.647,38.876 117.194,38.478 117.666,38.001C118.142,37.528 118.541,36.983 118.848,36.387C119.15,35.787 119.358,35.145 119.467,34.482C119.578,33.821 119.64,33.151 119.652,32.481C119.656,32.17 119.656,31.869 119.656,31.559C119.664,31.195 119.664,30.834 119.664,30.465L119.664,9.536C119.664,9.17 119.664,8.807 119.656,8.444C119.656,8.138 119.656,7.83 119.652,7.523C119.64,6.852 119.578,6.183 119.467,5.521C119.358,4.859 119.149,4.217 118.848,3.618C118.23,2.415 117.251,1.436 116.049,0.818C115.448,0.516 114.804,0.304 114.141,0.191C113.48,0.081 112.811,0.022 112.141,0.015C111.836,0.01 111.523,0.004 111.219,0.002C110.859,0 110.494,0 110.135,0L110.135,0Z" style="fill:rgb(46,42,42);fill-rule:nonzero;"/>
                <path d="M8.445,39.125C8.14,39.125 7.843,39.121 7.541,39.114C6.914,39.106 6.29,39.052 5.671,38.951C5.095,38.852 4.537,38.667 4.015,38.403C3.498,38.142 3.026,37.798 2.618,37.387C2.204,36.98 1.859,36.508 1.597,35.99C1.333,35.469 1.149,34.91 1.054,34.333C0.951,33.713 0.896,33.086 0.888,32.458C0.881,32.247 0.873,31.545 0.873,31.545L0.873,8.444C0.873,8.444 0.882,7.753 0.888,7.55C0.895,6.922 0.951,6.297 1.053,5.678C1.149,5.099 1.332,4.539 1.597,4.016C1.857,3.498 2.2,3.026 2.612,2.618C3.023,2.206 3.496,1.861 4.014,1.595C4.535,1.332 5.092,1.149 5.667,1.051C6.288,0.95 6.915,0.895 7.543,0.887L8.445,0.875L111.214,0.875L112.127,0.888C112.75,0.895 113.371,0.949 113.985,1.05C114.566,1.149 115.13,1.334 115.656,1.598C116.694,2.133 117.539,2.979 118.071,4.018C118.332,4.538 118.512,5.094 118.606,5.667C118.71,6.291 118.768,6.922 118.78,7.554C118.783,7.837 118.783,8.142 118.783,8.444C118.791,8.819 118.791,9.176 118.791,9.536L118.791,30.465C118.791,30.828 118.791,31.183 118.783,31.54C118.783,31.865 118.783,32.163 118.779,32.47C118.768,33.091 118.71,33.71 118.608,34.323C118.515,34.904 118.333,35.468 118.068,35.993C117.805,36.506 117.462,36.973 117.053,37.379C116.644,37.793 116.172,38.138 115.653,38.401C115.128,38.667 114.566,38.853 113.985,38.951C113.367,39.052 112.742,39.107 112.116,39.114C111.823,39.121 111.517,39.125 111.219,39.125L110.135,39.127L8.445,39.125Z" style="fill:white;fill-rule:nonzero;"/>
            </g>
            <g id="_Group_">
                <g id="_Group_3_" serif:id="_Group_3">
                    <path id="_Path_" d="M24.997,19.889C25.019,18.127 25.946,16.495 27.447,15.572C26.496,14.212 24.955,13.38 23.297,13.328C21.551,13.145 19.858,14.373 18.968,14.373C18.061,14.373 16.691,13.346 15.215,13.376C13.277,13.439 11.507,14.518 10.564,16.213C8.553,19.695 10.053,24.813 11.98,27.627C12.943,29.005 14.07,30.545 15.544,30.49C16.986,30.43 17.525,29.571 19.266,29.571C20.991,29.571 21.497,30.49 23,30.456C24.548,30.43 25.523,29.071 26.453,27.68C27.146,26.698 27.679,25.613 28.032,24.464C26.198,23.688 24.999,21.881 24.997,19.889Z" style="fill:rgb(46,42,42);fill-rule:nonzero;"/>
                    <path id="_Path_2_" serif:id="_Path_2" d="M22.156,11.477C23,10.464 23.416,9.161 23.315,7.847C22.026,7.982 20.835,8.599 19.98,9.573C19.135,10.534 18.707,11.792 18.79,13.068C20.096,13.082 21.338,12.494 22.156,11.477Z" style="fill:rgb(46,42,42);fill-rule:nonzero;"/>
                </g>
                <g>
                    <path d="M42.302,27.14L37.568,27.14L36.432,30.496L34.427,30.496L38.91,18.078L40.993,18.078L45.477,30.496L43.438,30.496L42.302,27.14ZM38.059,25.591L41.811,25.591L39.961,20.144L39.909,20.144L38.059,25.591Z" style="fill:rgb(46,42,42);fill-rule:nonzero;"/>
                    <path d="M55.159,25.97C55.159,28.783 53.653,30.591 51.381,30.591C50.208,30.652 49.099,30.035 48.532,29.007L48.489,29.007L48.489,33.491L46.631,33.491L46.631,21.442L48.43,21.442L48.43,22.948L48.464,22.948C49.056,21.926 50.166,21.31 51.347,21.348C53.645,21.348 55.159,23.164 55.159,25.97ZM53.249,25.97C53.249,24.137 52.302,22.932 50.856,22.932C49.437,22.932 48.481,24.162 48.481,25.97C48.481,27.794 49.437,29.016 50.856,29.016C52.302,29.016 53.249,27.819 53.249,25.97L53.249,25.97Z" style="fill:rgb(46,42,42);fill-rule:nonzero;"/>
                    <path d="M65.125,25.97C65.125,28.783 63.618,30.591 61.346,30.591C60.173,30.652 59.064,30.035 58.497,29.007L58.454,29.007L58.454,33.491L56.596,33.491L56.596,21.442L58.395,21.442L58.395,22.948L58.429,22.948C59.021,21.926 60.131,21.31 61.312,21.348C63.609,21.348 65.125,23.164 65.125,25.97ZM63.214,25.97C63.214,24.137 62.267,22.932 60.821,22.932C59.401,22.932 58.446,24.162 58.446,25.97C58.446,27.794 59.401,29.016 60.821,29.016C62.267,29.016 63.214,27.819 63.214,25.97Z" style="fill:rgb(46,42,42);fill-rule:nonzero;"/>
                    <path d="M71.709,27.036C71.847,28.268 73.043,29.076 74.678,29.076C76.245,29.076 77.372,28.268 77.372,27.157C77.372,26.193 76.692,25.616 75.083,25.221L73.473,24.833C71.193,24.282 70.134,23.216 70.134,21.485C70.134,19.343 72.001,17.871 74.652,17.871C77.277,17.871 79.076,19.343 79.136,21.485L77.26,21.485C77.148,20.246 76.124,19.498 74.626,19.498C73.129,19.498 72.105,20.255 72.105,21.356C72.105,22.234 72.759,22.751 74.36,23.146L75.728,23.482C78.276,24.085 79.333,25.108 79.333,26.925C79.333,29.248 77.484,30.703 74.54,30.703C71.787,30.703 69.927,29.282 69.807,27.036L71.709,27.036Z" style="fill:rgb(46,42,42);fill-rule:nonzero;"/>
                    <path d="M83.346,19.3L83.346,21.442L85.068,21.442L85.068,22.914L83.346,22.914L83.346,27.905C83.346,28.681 83.691,29.042 84.448,29.042C84.652,29.038 84.856,29.024 85.059,28.999L85.059,30.462C84.719,30.525 84.373,30.554 84.027,30.548C82.194,30.548 81.479,29.859 81.479,28.103L81.479,22.914L80.163,22.914L80.163,21.442L81.479,21.442L81.479,19.3L83.346,19.3Z" style="fill:rgb(46,42,42);fill-rule:nonzero;"/>
                    <path d="M86.064,25.97C86.064,23.121 87.742,21.331 90.358,21.331C92.983,21.331 94.653,23.121 94.653,25.97C94.653,28.826 92.992,30.608 90.358,30.608C87.725,30.608 86.064,28.826 86.064,25.97ZM92.759,25.97C92.759,24.016 91.864,22.862 90.358,22.862C88.852,22.862 87.957,24.024 87.957,25.97C87.957,27.932 88.852,29.076 90.358,29.076C91.864,29.076 92.759,27.932 92.759,25.97L92.759,25.97Z" style="fill:rgb(46,42,42);fill-rule:nonzero;"/>
                    <path d="M96.185,21.442L97.958,21.442L97.958,22.983L98.001,22.983C98.247,21.995 99.16,21.309 100.178,21.348C100.392,21.347 100.606,21.37 100.815,21.417L100.815,23.155C100.545,23.073 100.263,23.035 99.98,23.043C99.955,23.042 99.929,23.041 99.904,23.041C98.877,23.041 98.031,23.887 98.031,24.914C98.031,24.985 98.035,25.056 98.043,25.126L98.043,30.496L96.185,30.496L96.185,21.442Z" style="fill:rgb(46,42,42);fill-rule:nonzero;"/>
                    <path d="M109.383,27.837C109.133,29.48 107.533,30.608 105.485,30.608C102.851,30.608 101.216,28.844 101.216,26.013C101.216,23.173 102.86,21.331 105.407,21.331C107.912,21.331 109.487,23.052 109.487,25.797L109.487,26.434L103.092,26.434L103.092,26.546C103.086,26.615 103.083,26.684 103.083,26.754C103.083,28.047 104.148,29.112 105.441,29.112C105.47,29.112 105.499,29.111 105.528,29.11C106.427,29.195 107.281,28.675 107.619,27.837L109.383,27.837ZM103.101,25.135L107.627,25.135C107.63,25.094 107.631,25.054 107.631,25.014C107.631,23.819 106.648,22.836 105.454,22.836C105.438,22.836 105.422,22.837 105.407,22.837C105.402,22.837 105.398,22.837 105.393,22.837C104.136,22.837 103.101,23.872 103.101,25.129C103.101,25.131 103.101,25.133 103.101,25.135L103.101,25.135Z" style="fill:rgb(46,42,42);fill-rule:nonzero;"/>
                </g>
            </g>
        </g>
        <g id="_Group_4_" serif:id="_Group_4">
            <path d="M37.826,8.731C37.889,8.726 37.952,8.724 38.015,8.724C39.463,8.724 40.655,9.916 40.655,11.364C40.655,11.475 40.648,11.586 40.634,11.696C40.634,13.602 39.604,14.698 37.826,14.698L35.671,14.698L35.671,8.731L37.826,8.731ZM36.598,13.854L37.723,13.854C37.76,13.856 37.797,13.857 37.835,13.857C38.864,13.857 39.71,13.011 39.71,11.981C39.71,11.89 39.704,11.799 39.69,11.708C39.702,11.623 39.708,11.538 39.708,11.452C39.708,10.42 38.859,9.571 37.827,9.571C37.792,9.571 37.757,9.572 37.723,9.574L36.598,9.574L36.598,13.854Z" style="fill:rgb(46,42,42);fill-rule:nonzero;"/>
            <path d="M41.681,12.444C41.674,12.377 41.671,12.309 41.671,12.241C41.671,11.071 42.634,10.108 43.804,10.108C44.974,10.108 45.937,11.071 45.937,12.241C45.937,12.309 45.934,12.377 45.928,12.444C45.934,12.513 45.938,12.582 45.938,12.651C45.938,13.822 44.975,14.785 43.804,14.785C42.634,14.785 41.671,13.822 41.671,12.651C41.671,12.582 41.674,12.513 41.681,12.444ZM45.014,12.444C45.014,11.468 44.575,10.897 43.806,10.897C43.033,10.897 42.599,11.468 42.599,12.444C42.599,13.428 43.033,13.995 43.806,13.995C44.575,13.995 45.014,13.424 45.014,12.444L45.014,12.444Z" style="fill:rgb(46,42,42);fill-rule:nonzero;"/>
            <path d="M51.573,14.698L50.651,14.698L49.721,11.381L49.65,11.381L48.724,14.698L47.811,14.698L46.569,10.195L47.471,10.195L48.277,13.631L48.344,13.631L49.27,10.195L50.122,10.195L51.048,13.631L51.118,13.631L51.921,10.195L52.81,10.195L51.573,14.698Z" style="fill:rgb(46,42,42);fill-rule:nonzero;"/>
            <path d="M53.854,10.195L54.709,10.195L54.709,10.91L54.775,10.91C55.006,10.385 55.547,10.061 56.119,10.108C56.156,10.105 56.192,10.104 56.229,10.104C57.032,10.104 57.694,10.765 57.694,11.568C57.694,11.64 57.688,11.712 57.678,11.783L57.678,14.698L56.789,14.698L56.789,12.006C56.789,11.282 56.475,10.922 55.817,10.922C55.801,10.922 55.785,10.921 55.769,10.921C55.203,10.921 54.736,11.388 54.736,11.954C54.736,11.991 54.738,12.027 54.742,12.063L54.742,14.698L53.854,14.698L53.854,10.195Z" style="fill:rgb(46,42,42);fill-rule:nonzero;"/>
            <rect x="59.094" y="8.437" width="0.889" height="6.261" style="fill:rgb(46,42,42);fill-rule:nonzero;"/>
            <path d="M61.218,12.444C61.211,12.377 61.208,12.309 61.208,12.241C61.208,11.071 62.171,10.108 63.342,10.108C64.512,10.108 65.475,11.071 65.475,12.241C65.475,12.309 65.472,12.377 65.465,12.444C65.472,12.513 65.475,12.582 65.475,12.651C65.475,13.821 64.512,14.785 63.342,14.785C62.171,14.785 61.208,13.821 61.208,12.651C61.208,12.582 61.211,12.513 61.218,12.444ZM64.551,12.444C64.551,11.468 64.112,10.897 63.343,10.897C62.57,10.897 62.136,11.468 62.136,12.444C62.136,13.428 62.57,13.995 63.343,13.995C64.112,13.995 64.551,13.424 64.551,12.444L64.551,12.444Z" style="fill:rgb(46,42,42);fill-rule:nonzero;"/>
            <path d="M66.401,13.424C66.401,12.614 67.004,12.146 68.076,12.08L69.295,12.01L69.295,11.621C69.295,11.146 68.981,10.877 68.374,10.877C67.877,10.877 67.534,11.059 67.435,11.377L66.575,11.377C66.666,10.604 67.393,10.108 68.415,10.108C69.543,10.108 70.18,10.67 70.18,11.621L70.18,14.698L69.325,14.698L69.325,14.065L69.254,14.065C68.964,14.526 68.446,14.797 67.902,14.772C67.855,14.777 67.808,14.779 67.761,14.779C67.017,14.779 66.404,14.169 66.401,13.424ZM69.295,13.04L69.295,12.663L68.196,12.733C67.576,12.775 67.294,12.986 67.294,13.383C67.294,13.788 67.646,14.024 68.129,14.024C68.165,14.028 68.201,14.029 68.236,14.029C68.792,14.029 69.258,13.594 69.295,13.04Z" style="fill:rgb(46,42,42);fill-rule:nonzero;"/>
            <path d="M71.348,12.444C71.348,11.021 72.08,10.12 73.217,10.12C73.791,10.094 74.33,10.402 74.598,10.91L74.665,10.91L74.665,8.437L75.553,8.437L75.553,14.698L74.702,14.698L74.702,13.986L74.631,13.986C74.343,14.49 73.797,14.793 73.217,14.772C72.072,14.772 71.348,13.871 71.348,12.444ZM72.266,12.444C72.266,13.399 72.716,13.974 73.469,13.974C74.218,13.974 74.681,13.391 74.681,12.448C74.681,11.51 74.213,10.918 73.469,10.918C72.721,10.918 72.266,11.497 72.266,12.444L72.266,12.444Z" style="fill:rgb(46,42,42);fill-rule:nonzero;"/>
            <path d="M79.23,12.444C79.224,12.377 79.22,12.309 79.22,12.241C79.22,11.071 80.183,10.108 81.354,10.108C82.524,10.108 83.487,11.071 83.487,12.241C83.487,12.309 83.484,12.377 83.477,12.444C83.484,12.513 83.487,12.582 83.487,12.651C83.487,13.822 82.524,14.785 81.354,14.785C80.183,14.785 79.22,13.822 79.22,12.651C79.22,12.582 79.223,12.513 79.23,12.444ZM82.563,12.444C82.563,11.468 82.125,10.897 81.355,10.897C80.583,10.897 80.148,11.468 80.148,12.444C80.148,13.428 80.583,13.995 81.355,13.995C82.125,13.995 82.563,13.424 82.563,12.444Z" style="fill:rgb(46,42,42);fill-rule:nonzero;"/>
            <path d="M84.669,10.195L85.525,10.195L85.525,10.91L85.591,10.91C85.822,10.385 86.363,10.061 86.935,10.108C86.972,10.105 87.008,10.104 87.045,10.104C87.848,10.104 88.509,10.765 88.509,11.568C88.509,11.64 88.504,11.712 88.494,11.783L88.494,14.698L87.605,14.698L87.605,12.006C87.605,11.282 87.291,10.922 86.633,10.922C86.617,10.922 86.601,10.921 86.585,10.921C86.019,10.921 85.552,11.388 85.552,11.954C85.552,11.991 85.554,12.027 85.558,12.063L85.558,14.698L84.669,14.698L84.669,10.195Z" style="fill:rgb(46,42,42);fill-rule:nonzero;"/>
            <path d="M93.515,9.074L93.515,10.215L94.491,10.215L94.491,10.964L93.515,10.964L93.515,13.279C93.515,13.751 93.709,13.958 94.152,13.958C94.265,13.957 94.378,13.95 94.491,13.937L94.491,14.677C94.331,14.706 94.169,14.721 94.007,14.723C93.019,14.723 92.626,14.375 92.626,13.507L92.626,10.964L91.911,10.964L91.911,10.215L92.626,10.215L92.626,9.074L93.515,9.074Z" style="fill:rgb(46,42,42);fill-rule:nonzero;"/>
            <path d="M95.705,8.437L96.585,8.437L96.585,10.918L96.656,10.918C96.897,10.388 97.448,10.065 98.029,10.112C98.056,10.11 98.082,10.11 98.109,10.11C98.923,10.11 99.593,10.779 99.593,11.593C99.593,11.659 99.588,11.725 99.58,11.791L99.58,14.698L98.69,14.698L98.69,12.01C98.69,11.291 98.355,10.926 97.727,10.926C97.699,10.924 97.67,10.923 97.641,10.923C97.064,10.923 96.589,11.398 96.589,11.975C96.589,12.006 96.591,12.037 96.593,12.068L96.593,14.698L95.705,14.698L95.705,8.437Z" style="fill:rgb(46,42,42);fill-rule:nonzero;"/>
            <path d="M104.761,13.482C104.513,14.328 103.687,14.88 102.81,14.785C102.792,14.785 102.774,14.785 102.756,14.785C101.634,14.785 100.711,13.862 100.711,12.74C100.711,12.647 100.717,12.553 100.73,12.46C100.718,12.369 100.712,12.277 100.712,12.185C100.712,11.045 101.649,10.108 102.788,10.108C102.794,10.108 102.8,10.108 102.806,10.108C104.059,10.108 104.815,10.964 104.815,12.378L104.815,12.688L101.635,12.688L101.635,12.738C101.632,12.771 101.631,12.804 101.631,12.838C101.631,13.491 102.168,14.028 102.821,14.028C102.826,14.028 102.83,14.028 102.834,14.028C103.268,14.08 103.693,13.864 103.906,13.482L104.761,13.482ZM101.635,12.031L103.91,12.031C103.912,12.004 103.913,11.977 103.913,11.95C103.913,11.354 103.422,10.864 102.826,10.864C102.818,10.864 102.81,10.864 102.801,10.864C102.796,10.864 102.792,10.864 102.787,10.864C102.155,10.864 101.635,11.384 101.635,12.016C101.635,12.021 101.635,12.026 101.635,12.031L101.635,12.031Z" style="fill:rgb(46,42,42);fill-rule:nonzero;"/>
        </g>
    </g>
</svg>
