<?xml version="1.0" encoding="UTF-8"?>
<svg width="210px" height="70px" viewBox="0 0 210 70" version="1.1" xmlns="http://www.w3.org/2000/svg" xmlns:xlink="http://www.w3.org/1999/xlink">
    <!-- Generator: Sketch 54.1 (76490) - https://sketchapp.com -->
    <title>Group 6 Copy 3</title>
    <desc>Created with Sketch.</desc>
    <g id="Page-1" stroke="none" stroke-width="1" fill="none" fill-rule="evenodd">
        <g id="Mobile-Portrait-Copy-9" transform="translate(-54.000000, -774.000000)">
            <g id="Group-6-Copy-3" transform="translate(54.000000, 774.000000)">
                <rect id="Rectangle-2-Copy" stroke="#4A4A4A" fill="#000000" x="0.5" y="0.5" width="209" height="69" rx="5"></rect>
                <g id="Group" transform="translate(18.000000, 15.000000)" fill="#FFFFFE">
                    <path d="M25.8956824,20.0737973 C25.8519324,15.2595473 29.8366824,12.9180473 30.0186824,12.8077973 C27.7629324,9.51604726 24.2629324,9.06629726 23.0344324,9.03129726 C20.0961824,8.72329726 17.2471824,10.7900473 15.7491824,10.7900473 C14.2231824,10.7900473 11.9184324,9.06279726 9.43518244,9.11354726 C6.23968244,9.16254726 3.24718244,11.0140473 1.60743244,13.8875473 C-1.77706756,19.7465473 0.746432443,28.3582973 3.98918244,33.0937973 C5.61143244,35.4160473 7.50668244,38.0060473 9.98818244,37.9132973 C12.4154324,37.8135473 13.3219324,36.3662973 16.2514324,36.3662973 C19.1546824,36.3662973 20.0051824,37.9132973 22.5356824,37.8555473 C25.1396824,37.8135473 26.7811824,35.5245473 28.3456824,33.1830473 C30.2216824,30.5247973 30.9741824,27.9067973 31.0039324,27.7720473 C30.9426824,27.7510473 25.9446824,25.8452973 25.8956824,20.0737973" id="Fill-5"></path>
                    <path d="M21.7090517,6.10925 C23.0145517,4.4765 23.9070517,2.25575 23.6603017,0 C21.7703017,0.084 19.4078017,1.30725 18.0463017,2.905 C16.8423017,4.312 15.7660517,6.62025 16.0443017,8.78675 C18.1670517,8.946 20.3475517,7.71575 21.7090517,6.10925" id="Fill-7"></path>
                    <path d="M49.356,30.14775 L55.922,30.14775 L52.6845,20.6155 L52.59525,20.6155 L49.356,30.14775 Z M56.78125,32.8585 L48.4985,32.8585 L46.50875,38.7315 L43,38.7315 L50.847,17 L54.49225,17 L62.3375,38.7315 L58.76925,38.7315 L56.78125,32.8585 Z" id="Fill-9"></path>
                    <path d="M76.5815,30.0885 C76.5815,26.88075 74.92425,24.772 72.39375,24.772 C69.90875,24.772 68.2375,26.9245 68.2375,30.0885 C68.2375,33.2805 69.90875,35.419 72.39375,35.419 C74.92425,35.419 76.5815,33.326 76.5815,30.0885 M79.924,30.0885 C79.924,35.01125 77.2885,38.17525 73.3125,38.17525 C71.055,38.17525 69.26125,37.1655 68.32675,35.40325 L68.2515,35.40325 L68.2515,43.25025 L65,43.25025 L65,22.16625 L68.14825,22.16625 L68.14825,24.80175 L68.20775,24.80175 C69.11075,23.10075 71.03925,22 73.253,22 C77.2745,22 79.924,25.178 79.924,30.0885" id="Fill-11"></path>
                    <path d="M93.5815,30.0885 C93.5815,26.88075 91.92425,24.772 89.39375,24.772 C86.90875,24.772 85.2375,26.9245 85.2375,30.0885 C85.2375,33.2805 86.90875,35.419 89.39375,35.419 C91.92425,35.419 93.5815,33.326 93.5815,30.0885 M96.924,30.0885 C96.924,35.01125 94.2885,38.17525 90.3125,38.17525 C88.055,38.17525 86.26125,37.1655 85.32675,35.40325 L85.2515,35.40325 L85.2515,43.25025 L82,43.25025 L82,22.16625 L85.14825,22.16625 L85.14825,24.80175 L85.20775,24.80175 C86.11075,23.10075 88.03925,22 90.253,22 C94.2745,22 96.924,25.178 96.924,30.0885" id="Fill-13"></path>
                    <path d="M108.3285,32.03875 C108.57,34.193 110.663,35.60875 113.52425,35.60875 C116.26475,35.60875 118.237,34.193 118.237,32.2505 C118.237,30.5635 117.047,29.55375 114.23125,28.8625 L111.4155,28.1835 C107.42375,27.21925 105.57225,25.35375 105.57225,22.3245 C105.57225,18.576 108.8395,16 113.47875,16 C118.07075,16 121.219,18.576 121.32575,22.3245 L118.04275,22.3245 C117.845,20.15625 116.053,18.84725 113.43325,18.84725 C110.8135,18.84725 109.0215,20.172 109.0215,22.09875 C109.0215,23.63525 110.166,24.54 112.966,25.23125 L115.36175,25.81925 C119.819,26.8745 121.67225,28.66475 121.67225,31.8445 C121.67225,35.90975 118.433,38.456 113.28275,38.456 C108.46325,38.456 105.21,35.96925 105,32.03875 L108.3285,32.03875 Z" id="Fill-15"></path>
                    <path d="M128.572,19 L128.572,22.75025 L131.5855,22.75025 L131.5855,25.3245 L128.572,25.3245 L128.572,34.05875 C128.572,35.41675 129.17575,36.0485 130.5005,36.0485 C130.83125,36.0485 131.35975,36.003 131.56975,35.97325 L131.56975,38.5335 C131.20925,38.6245 130.4865,38.684 129.76375,38.684 C126.556,38.684 125.30475,37.48 125.30475,34.407 L125.30475,25.3245 L123,25.3245 L123,22.75025 L125.30475,22.75025 L125.30475,19 L128.572,19 Z" id="Fill-17"></path>
                    <path d="M145.71625,30.11825 C145.71625,26.69875 144.14825,24.681 141.5145,24.681 C138.879,24.681 137.31275,26.7145 137.31275,30.11825 C137.31275,33.55175 138.879,35.55375 141.5145,35.55375 C144.14825,35.55375 145.71625,33.55175 145.71625,30.11825 M134,30.11825 C134,25.1325 136.93475,22 141.5145,22 C146.10825,22 149.03075,25.1325 149.03075,30.11825 C149.03075,35.11625 146.12225,38.2365 141.5145,38.2365 C136.90675,38.2365 134,35.11625 134,30.11825" id="Fill-19"></path>
                    <path d="M151,22.16625 L154.101,22.16625 L154.101,24.863 L154.17625,24.863 C154.675,23.071 156.1205,22 157.98775,22 C158.455,22 158.84525,22.06125 159.1025,22.1225 L159.1025,25.164 C158.84525,25.05725 158.273,24.968 157.64125,24.968 C155.54825,24.968 154.2515,26.38375 154.2515,28.61325 L154.2515,38.01075 L151,38.01075 L151,22.16625 Z" id="Fill-21"></path>
                    <path d="M163.29875,28.657 L171.21925,28.657 C171.144,26.2315 169.5935,24.6355 167.33425,24.6355 C165.089,24.6355 163.465,26.263 163.29875,28.657 L163.29875,28.657 Z M174.29225,33.3855 C173.85475,36.2625 171.05475,38.2365 167.47075,38.2365 C162.86125,38.2365 160,35.14775 160,30.1935 C160,25.2235 162.877,22 167.33425,22 C171.718,22 174.47425,25.01175 174.47425,29.8155 L174.47425,30.93025 L163.283,30.93025 L163.283,31.12625 C163.283,33.837 164.98575,35.615 167.546,35.615 C169.352,35.615 170.7695,34.75575 171.20525,33.3855 L174.29225,33.3855 Z" id="Fill-23"></path>
                    <path d="M46.62225,8.96525 L48.591,8.96525 C50.775,8.96525 52.035,7.6055 52.035,5.20975 C52.035,2.85075 50.754,1.47525 48.591,1.47525 L46.62225,1.47525 L46.62225,8.96525 Z M48.773,0 C51.86875,0 53.68525,1.90225 53.68525,5.18875 C53.68525,8.52425 51.88275,10.44225 48.773,10.44225 L45,10.44225 L45,0 L48.773,0 Z" id="Fill-25"></path>
                    <path d="M61.83275,7.088 C61.83275,5.38 61.06625,4.38075 59.71875,4.38075 C58.36775,4.38075 57.6065,5.38 57.6065,7.088 C57.6065,8.81 58.36775,9.8005 59.71875,9.8005 C61.06625,9.8005 61.83275,8.803 61.83275,7.088 M56,7.088 C56,4.547 57.41925,3 59.71875,3 C62.01475,3 63.43225,4.547 63.43225,7.088 C63.43225,9.64125 62.02,11.183 59.71875,11.183 C57.41225,11.183 56,9.64125 56,7.088" id="Fill-27"></path>
                    <polygon id="Fill-29" points="73.757 10.88025 72.1435 10.88025 70.51425 5.07725 70.39175 5.07725 68.7695 10.88025 67.17175 10.88025 65 3 66.57675 3 67.989 9.013 68.10625 9.013 69.725 3 71.21775 3 72.83825 9.013 72.96075 9.013 74.366 3 75.92 3"></polygon>
                    <path d="M77,3.15225 L78.49625,3.15225 L78.49625,4.4035 L78.6135,4.4035 C78.99675,3.5285 79.779,3 80.9655,3 C82.72425,3 83.692,4.057 83.692,5.93125 L83.692,11.0325 L82.138,11.0325 L82.138,6.3215 C82.138,5.0545 81.58675,4.42625 80.437,4.42625 C79.28725,4.42625 78.55575,5.19275 78.55575,6.423 L78.55575,11.0325 L77,11.0325 L77,3.15225 Z" id="Fill-31"></path>
                    <polygon id="Fill-33" points="86 10.95675 87.55575 10.95675 87.55575 0 86 0"></polygon>
                    <path d="M95.83275,7.088 C95.83275,5.38 95.06625,4.38075 93.71875,4.38075 C92.36775,4.38075 91.6065,5.38 91.6065,7.088 C91.6065,8.81 92.36775,9.8005 93.71875,9.8005 C95.06625,9.8005 95.83275,8.803 95.83275,7.088 M90,7.088 C90,4.547 91.41925,3 93.71875,3 C96.01475,3 97.434,4.547 97.434,7.088 C97.434,9.64125 96.02,11.183 93.71875,11.183 C91.41225,11.183 90,9.64125 90,7.088" id="Fill-35"></path>
                    <path d="M104.06625,8.131 L104.06625,7.473 L102.14125,7.5955 C101.05625,7.66725 100.5645,8.0365 100.5645,8.73125 C100.5645,9.44175 101.1805,9.853 102.02575,9.853 C103.19825,9.853 104.06625,9.1075 104.06625,8.131 M99,8.80475 C99,7.3855 100.057,6.56825 101.93125,6.45275 L104.06625,6.3285 L104.06625,5.6495 C104.06625,4.8165 103.51675,4.34575 102.45275,4.34575 C101.58475,4.34575 100.98275,4.666 100.81125,5.2225 L99.3045,5.2225 C99.46375,3.868 100.73775,3 102.5245,3 C104.50025,3 105.615,3.9835 105.615,5.6495 L105.615,11.0325 L104.117,11.0325 L104.117,9.92475 L103.9945,9.92475 C103.52375,10.714 102.66275,11.162 101.62675,11.162 C100.10775,11.162 99,10.245 99,8.80475" id="Fill-36"></path>
                    <path d="M109.6065,7.01225 C109.6065,8.6835 110.394,9.68975 111.71175,9.68975 C113.0225,9.68975 113.83275,8.6695 113.83275,7.01925 C113.83275,5.376 113.01375,4.34175 111.71175,4.34175 C110.40275,4.34175 109.6065,5.355 109.6065,7.01225 M108,7.01225 C108,4.522 109.27925,2.94525 111.27075,2.94525 C112.34875,2.94525 113.2605,3.458 113.6875,4.32775 L113.803,4.32775 L113.803,0 L115.35875,0 L115.35875,10.955 L113.8695,10.955 L113.8695,9.71075 L113.74525,9.71075 C113.27625,10.57175 112.35575,11.08625 111.27075,11.08625 C109.267,11.08625 108,9.50775 108,7.01225" id="Fill-37"></path>
                    <path d="M127.83275,7.088 C127.83275,5.38 127.06625,4.38075 125.71875,4.38075 C124.36775,4.38075 123.6065,5.38 123.6065,7.088 C123.6065,8.81 124.36775,9.8005 125.71875,9.8005 C127.06625,9.8005 127.83275,8.803 127.83275,7.088 M122,7.088 C122,4.547 123.41925,3 125.71875,3 C128.01475,3 129.43225,4.547 129.43225,7.088 C129.43225,9.64125 128.02,11.183 125.71875,11.183 C123.41225,11.183 122,9.64125 122,7.088" id="Fill-38"></path>
                    <path d="M131,3.15225 L132.49625,3.15225 L132.49625,4.4035 L132.6135,4.4035 C132.99675,3.5285 133.779,3 134.9655,3 C136.72425,3 137.692,4.057 137.692,5.93125 L137.692,11.0325 L136.138,11.0325 L136.138,6.3215 C136.138,5.0545 135.58675,4.42625 134.437,4.42625 C133.28725,4.42625 132.55575,5.19275 132.55575,6.423 L132.55575,11.0325 L131,11.0325 L131,3.15225 Z" id="Fill-39"></path>
                    <path d="M146.807,1 L146.807,2.9985 L148.515,2.9985 L148.515,4.3075 L146.807,4.3075 L146.807,8.3605 C146.807,9.18475 147.1465,9.547 147.92175,9.547 C148.15975,9.547 148.298,9.53125 148.515,9.51025 L148.515,10.807 C148.26125,10.849 147.97075,10.88575 147.668,10.88575 C145.939,10.88575 145.2495,10.27675 145.2495,8.75775 L145.2495,4.3075 L144,4.3075 L144,2.9985 L145.2495,2.9985 L145.2495,1 L146.807,1 Z" id="Fill-40"></path>
                    <path d="M151,0 L152.54175,0 L152.54175,4.34175 L152.66425,4.34175 C153.0475,3.45975 153.8805,2.93125 155.067,2.93125 C156.74525,2.93125 157.78125,3.99525 157.78125,5.8695 L157.78125,10.95675 L156.22375,10.95675 L156.22375,6.25275 C156.22375,4.9945 155.6375,4.35575 154.5385,4.35575 C153.2645,4.35575 152.55575,5.16075 152.55575,6.35425 L152.55575,10.95675 L151,10.95675 L151,0 Z" id="Fill-41"></path>
                    <path d="M160.58375,6.36525 L164.56325,6.36525 C164.52825,5.128 163.77575,4.323 162.62425,4.323 C161.4745,4.323 160.67125,5.135 160.58375,6.36525 L160.58375,6.36525 Z M166.05425,8.9045 C165.70075,10.31675 164.44075,11.18475 162.64,11.18475 C160.3825,11.18475 159,9.636 159,7.11775 C159,4.5995 160.4105,3 162.633,3 C164.82575,3 166.14875,4.498 166.14875,6.9725 L166.14875,7.515 L160.58375,7.515 L160.58375,7.6025 C160.6345,8.985 161.43775,9.86 162.682,9.86 C163.6235,9.86 164.2675,9.5205 164.558,8.9045 L166.05425,8.9045 Z" id="Fill-42"></path>
                </g>
            </g>
        </g>
    </g>
</svg>