<?xml version="1.0" encoding="UTF-8"?>
<svg width="54px" height="19px" viewBox="0 0 54 19" version="1.1" xmlns="http://www.w3.org/2000/svg" xmlns:xlink="http://www.w3.org/1999/xlink">
    <!-- Generator: Sketch 54.1 (76490) - https://sketchapp.com -->
    <title>juno</title>
    <desc>Created with Sketch.</desc>
    <defs>
        <polygon id="path-1" points="0.15564142 0.275219672 11.1319882 0.275219672 11.1319882 10.5816295 0.15564142 10.5816295"></polygon>
        <polygon id="path-3" points="0.000127810651 0.1786 8.36980828 0.1786 8.36980828 14.0163934 0.000127810651 14.0163934"></polygon>
    </defs>
    <g id="Page-1" stroke="none" stroke-width="1" fill="none" fill-rule="evenodd">
        <g id="Desktop-Copy-16" transform="translate(-30.000000, -23.000000)">
            <g id="juno" transform="translate(30.000000, 23.000000)">
                <polygon id="Fill-1" fill="#FEFEFE" points="5.4204497 2.87513607 8.36968047 2.87513607 8.36968047 -9.3442623e-05 5.4204497 -9.3442623e-05"></polygon>
                <g id="Group-12" transform="translate(0.000000, 4.412579)">
                    <g id="Group-4" transform="translate(42.816568, 0.000000)">
                        <mask id="mask-2" fill="white">
                            <use xlink:href="#path-1"></use>
                        </mask>
                        <g id="Clip-3"></g>
                        <path d="M8.89277751,6.64520328 C8.89277751,7.82600656 8.01152308,8.64923607 6.8369432,8.64923607 L4.52420947,8.64923607 C3.34931006,8.64923607 2.46869467,7.79018689 2.46869467,6.64520328 L2.46869467,4.21195738 C2.46869467,3.03084262 3.34931006,2.20761311 4.52420947,2.20761311 L6.8369432,2.20761311 C8.04826864,2.20761311 8.89277751,3.03084262 8.89277751,4.21195738 L8.89277751,6.64520328 Z M5.62529822,0.275219672 C1.99100237,0.275219672 0.15564142,2.10046557 0.15564142,5.42858033 C0.15564142,8.79220328 1.99100237,10.5816295 5.62529822,10.5816295 C9.22316805,10.5816295 11.1323396,8.72087541 11.1323396,5.42858033 C11.1323396,2.10046557 9.33340473,0.275219672 5.62529822,0.275219672 L5.62529822,0.275219672 Z" id="Fill-2" fill="#FEFEFE" mask="url(#mask-2)"></path>
                    </g>
                    <path d="M35.4999195,0.275344262 L34.7292213,0.275344262 C32.4164876,0.275344262 31.5719787,1.70688525 31.3518249,2.13609836 L31.2783337,2.13609836 L31.2783337,0.48995082 L27.093174,0.48995082 L27.093174,2.45816393 L29.2224994,2.45816393 L29.2224994,10.3310164 L31.2783337,10.3310164 L31.2783337,4.17595082 C31.2783337,3.03096721 32.1960142,2.13609836 33.334168,2.13609836 L35.0228663,2.13609836 C36.1607006,2.13609836 37.0783811,3.03096721 37.0783811,4.17595082 L37.0783811,10.3310164 L39.1709609,10.3310164 L39.1709609,3.85388525 C39.1709609,1.59942623 37.8126533,0.275344262 35.4999195,0.275344262" id="Fill-5" fill="#FEFEFE"></path>
                    <g id="Group-9" transform="translate(0.000000, 0.311475)">
                        <mask id="mask-4" fill="white">
                            <use xlink:href="#path-3"></use>
                        </mask>
                        <g id="Clip-8"></g>
                        <path d="M3.15705089,0.1786 L3.15705089,2.14681311 L6.31429349,2.14681311 L6.31429349,11.9888131 L0.000127810651,11.9888131 L0.000127810651,14.016518 L6.31429349,14.016518 C7.45212781,14.016518 8.36980828,13.1219607 8.36980828,11.9766656 L8.36980828,0.1786 L3.15705089,0.1786 Z" id="Fill-7" fill="#FEFEFE" mask="url(#mask-4)"></path>
                    </g>
                    <path d="M21.6934935,6.64520328 C21.6934935,7.79018689 20.775813,8.68505574 19.6373396,8.68505574 L17.9489609,8.68505574 C16.8108071,8.68505574 15.8931266,7.79018689 15.8931266,6.64520328 L15.8931266,2.45835082 L15.8931266,0.490137705 L11.7082864,0.490137705 L11.7082864,2.45835082 L13.8005467,2.45835082 L13.8005467,6.96726885 C13.8005467,9.22172787 15.1588544,10.5458098 17.4715882,10.5458098 L18.2426059,10.5458098 C20.5553396,10.5458098 21.3998485,9.11426885 21.6200024,8.68505574 L21.6934935,8.68505574 L21.6934935,10.3308918 L23.7493278,10.3308918 L23.7493278,0.490137705 L21.6934935,0.490137705 L21.6934935,6.64520328 Z" id="Fill-10" fill="#FEFEFE"></path>
                </g>
            </g>
        </g>
    </g>
</svg>