<?xml version="1.0" encoding="UTF-8"?>
<svg width="52px" height="18px" viewBox="0 0 52 18" version="1.1" xmlns="http://www.w3.org/2000/svg" xmlns:xlink="http://www.w3.org/1999/xlink">
    <!-- Generator: Sketch 54.1 (76490) - https://sketchapp.com -->
    <title>Juno</title>
    <desc>Created with Sketch.</desc>
    <g id="Page-1" stroke="none" stroke-width="1" fill="none" fill-rule="evenodd">
        <g id="Mobile-Portrait-Copy-15" transform="translate(-136.000000, -461.000000)" fill="#FFFFFF" fill-rule="nonzero">
            <path d="M141.06,478.168 C138.084,478.168 136.26,476.2 136.02,472.84 L137.7,472.84 C137.844,475.264 139.044,476.584 141.06,476.584 C143.1,476.584 144.42,475.264 144.42,472 L144.42,461.2 L146.1,461.2 L146.1,472 C146.1,476.176 144.108,478.168 141.06,478.168 Z M154.38,478.168 C151.764,478.168 150.06,476.464 150.06,473.2 L150.06,466 L151.644,466 L151.644,473.2 C151.644,475.528 152.796,476.68 154.62,476.68 C156.66,476.68 158.076,475.264 158.076,473.2 L158.076,466 L159.66,466 L159.66,478 L158.436,478 L158.244,476.032 C157.452,477.4 156.06,478.168 154.38,478.168 Z M163.74,478 L163.74,466 L164.964,466 L165.156,467.968 C165.948,466.6 167.364,465.832 169.14,465.832 C171.876,465.832 173.58,467.536 173.58,470.8 L173.58,478 L171.996,478 L171.996,470.8 C171.996,468.472 170.844,467.32 168.9,467.32 C166.788,467.32 165.396,468.664 165.324,470.656 L165.324,478 L163.74,478 Z M182.1,478.168 C178.908,478.168 176.82,476.08 176.82,472.528 L176.82,471.472 C176.82,467.944 178.932,465.832 182.1,465.832 C185.292,465.832 187.38,467.92 187.38,471.472 L187.38,472.528 C187.38,476.056 185.268,478.168 182.1,478.168 Z M182.1,476.68 C184.26,476.68 185.748,475.192 185.748,472.528 L185.748,471.472 C185.748,468.832 184.236,467.32 182.1,467.32 C179.94,467.32 178.452,468.808 178.452,471.472 L178.452,472.528 C178.452,475.168 179.964,476.68 182.1,476.68 Z" id="Juno"></path>
        </g>
    </g>
</svg>