<?xml version="1.0" encoding="UTF-8"?>
<svg width="149px" height="18px" viewBox="0 0 149 18" version="1.1" xmlns="http://www.w3.org/2000/svg" xmlns:xlink="http://www.w3.org/1999/xlink">
    <!-- Generator: Sketch 54.1 (76490) - https://sketchapp.com -->
    <title>JunoConnect</title>
    <desc>Created with Sketch.</desc>
    <g id="Page-1" stroke="none" stroke-width="1" fill="none" fill-rule="evenodd">
        <g id="Mobile-Portrait-Copy-15" transform="translate(-85.000000, -974.000000)" fill="#FFFFFF" fill-rule="nonzero">
            <g id="Group-7-Copy" transform="translate(81.000000, 809.000000)">
                <g id="Group-5" transform="translate(4.000000, 0.000000)">
                    <path d="M5.26,182.168 C2.284,182.168 0.46,180.2 0.22,176.84 L1.9,176.84 C2.044,179.264 3.244,180.584 5.26,180.584 C7.3,180.584 8.62,179.264 8.62,176 L8.62,165.2 L10.3,165.2 L10.3,176 C10.3,180.176 8.308,182.168 5.26,182.168 Z M18.58,182.168 C15.964,182.168 14.26,180.464 14.26,177.2 L14.26,170 L15.844,170 L15.844,177.2 C15.844,179.528 16.996,180.68 18.82,180.68 C20.86,180.68 22.276,179.264 22.276,177.2 L22.276,170 L23.86,170 L23.86,182 L22.636,182 L22.444,180.032 C21.652,181.4 20.26,182.168 18.58,182.168 Z M27.94,182 L27.94,170 L29.164,170 L29.356,171.968 C30.148,170.6 31.564,169.832 33.34,169.832 C36.076,169.832 37.78,171.536 37.78,174.8 L37.78,182 L36.196,182 L36.196,174.8 C36.196,172.472 35.044,171.32 33.1,171.32 C30.988,171.32 29.596,172.664 29.524,174.656 L29.524,182 L27.94,182 Z M46.3,182.168 C43.108,182.168 41.02,180.08 41.02,176.528 L41.02,175.472 C41.02,171.944 43.132,169.832 46.3,169.832 C49.492,169.832 51.58,171.92 51.58,175.472 L51.58,176.528 C51.58,180.056 49.468,182.168 46.3,182.168 Z M46.3,180.68 C48.46,180.68 49.948,179.192 49.948,176.528 L49.948,175.472 C49.948,172.832 48.436,171.32 46.3,171.32 C44.14,171.32 42.652,172.808 42.652,175.472 L42.652,176.528 C42.652,179.168 44.164,180.68 46.3,180.68 Z M67.3,182.168 C63.34,182.168 60.46,179.288 60.46,174.368 L60.46,172.832 C60.46,167.936 63.364,165.032 67.3,165.032 C70.852,165.032 73.18,167.36 73.66,169.88 L71.836,169.88 C71.356,168.2 69.772,166.616 67.3,166.616 C64.372,166.616 62.188,168.8 62.188,172.832 L62.188,174.368 C62.188,178.376 64.396,180.584 67.3,180.584 C69.724,180.584 71.356,178.952 71.836,176.84 L73.66,176.84 C73.18,179.816 70.828,182.168 67.3,182.168 Z M81.58,182.168 C78.388,182.168 76.3,180.08 76.3,176.528 L76.3,175.472 C76.3,171.944 78.412,169.832 81.58,169.832 C84.772,169.832 86.86,171.92 86.86,175.472 L86.86,176.528 C86.86,180.056 84.748,182.168 81.58,182.168 Z M81.58,180.68 C83.74,180.68 85.228,179.192 85.228,176.528 L85.228,175.472 C85.228,172.832 83.716,171.32 81.58,171.32 C79.42,171.32 77.932,172.808 77.932,175.472 L77.932,176.528 C77.932,179.168 79.444,180.68 81.58,180.68 Z M90.22,182 L90.22,170 L91.444,170 L91.636,171.968 C92.428,170.6 93.844,169.832 95.62,169.832 C98.356,169.832 100.06,171.536 100.06,174.8 L100.06,182 L98.476,182 L98.476,174.8 C98.476,172.472 97.324,171.32 95.38,171.32 C93.268,171.32 91.876,172.664 91.804,174.656 L91.804,182 L90.22,182 Z M104.02,182 L104.02,170 L105.244,170 L105.436,171.968 C106.228,170.6 107.644,169.832 109.42,169.832 C112.156,169.832 113.86,171.536 113.86,174.8 L113.86,182 L112.276,182 L112.276,174.8 C112.276,172.472 111.124,171.32 109.18,171.32 C107.068,171.32 105.676,172.664 105.604,174.656 L105.604,182 L104.02,182 Z M122.26,182.168 C119.116,182.168 117.1,180.152 117.1,176.528 L117.1,175.472 C117.1,171.872 119.14,169.832 122.26,169.832 C125.38,169.832 127.42,171.872 127.42,175.472 L127.42,176.456 L118.732,176.456 L118.732,176.528 C118.732,179.288 120.124,180.68 122.26,180.68 C124.252,180.68 125.188,179.744 125.668,178.496 L127.3,178.496 C126.82,180.56 125.212,182.168 122.26,182.168 Z M122.26,171.32 C120.196,171.32 118.876,172.664 118.732,175.064 L125.764,175.064 C125.644,172.568 124.276,171.32 122.26,171.32 Z M135.22,182.168 C132.148,182.168 130.06,180.08 130.06,176.528 L130.06,175.472 C130.06,171.944 132.172,169.832 135.22,169.832 C137.884,169.832 139.42,171.368 139.9,173.24 L138.22,173.24 C137.74,172.136 136.924,171.32 135.22,171.32 C133.18,171.32 131.692,172.808 131.692,175.472 L131.692,176.528 C131.692,179.168 133.204,180.68 135.22,180.68 C136.924,180.68 137.74,179.864 138.22,178.52 L139.9,178.52 C139.42,180.632 137.884,182.168 135.22,182.168 Z M141.46,171.44 L141.46,170 L143.62,170 L143.62,166.64 L145.204,166.64 L145.204,170 L148.42,170 L148.42,171.44 L145.204,171.44 L145.204,178.64 C145.204,179.96 145.804,180.56 146.98,180.56 L148.66,180.56 L148.66,182 L146.788,182 C144.724,182 143.62,180.896 143.62,178.832 L143.62,171.44 L141.46,171.44 Z" id="JunoConnect"></path>
                </g>
            </g>
        </g>
    </g>
</svg>