<?xml version="1.0" encoding="UTF-8"?>
<svg width="156px" height="19px" viewBox="0 0 156 19" version="1.1" xmlns="http://www.w3.org/2000/svg" xmlns:xlink="http://www.w3.org/1999/xlink">
    <!-- Generator: Sketch 54.1 (76490) - https://sketchapp.com -->
    <title>juno-connect</title>
    <desc>Created with Sketch.</desc>
    <defs>
        <polygon id="path-1" points="0 0.178506557 8.37374754 0.178506557 8.37374754 14.0163934 0 14.0163934"></polygon>
        <polygon id="path-3" points="0.288759836 0.137827869 11.835541 0.137827869 11.835541 12.1997131 0.288759836 12.1997131"></polygon>
    </defs>
    <g id="Page-1" stroke="none" stroke-width="1" fill="none" fill-rule="evenodd">
        <g id="Desktop-Copy-16" transform="translate(-105.000000, -23.000000)">
            <g id="juno-connect" transform="translate(105.000000, 23.000000)">
                <polygon id="Fill-1" fill="#FEFEFE" points="5.42291803 2.87513607 8.37381148 2.87513607 8.37381148 0.000218032787 5.42291803 0.000218032787"></polygon>
                <g id="Group-26" transform="translate(0.000000, 2.543726)">
                    <path d="M51.7328287,8.51411803 C51.7328287,9.69492131 50.8514926,10.5181508 49.6760582,10.5181508 L47.3622713,10.5181508 C46.1871566,10.5181508 45.3055008,9.65910164 45.3055008,8.51411803 L45.3055008,6.08056066 C45.3055008,4.89975738 46.1871566,4.07652787 47.3622713,4.07652787 L49.6760582,4.07652787 C50.8879352,4.07652787 51.7328287,4.89975738 51.7328287,6.08056066 L51.7328287,8.51411803 Z M48.4641811,2.14413443 C44.8282303,2.14413443 42.9917139,3.96938033 42.9917139,7.29749508 C42.9917139,10.661118 44.8282303,12.4505443 48.4641811,12.4505443 C52.0633697,12.4505443 53.9734107,10.5894787 53.9734107,7.29749508 C53.9734107,3.96938033 52.1736566,2.14413443 48.4641811,2.14413443 L48.4641811,2.14413443 Z" id="Fill-2" fill="#FEFEFE"></path>
                    <path d="M35.5162131,2.14425902 L34.7448443,2.14425902 C32.4310574,2.14425902 31.5864836,3.57548852 31.3659098,4.00501311 L31.2927049,4.00501311 L31.2927049,2.35886557 L27.1056393,2.35886557 L27.1056393,4.32707869 L29.2359344,4.32707869 L29.2359344,12.1999311 L31.2927049,12.1999311 L31.2927049,6.04486557 C31.2927049,4.89957049 32.2108033,4.00501311 33.3491557,4.00501311 L35.038623,4.00501311 C36.1772951,4.00501311 37.0953934,4.89957049 37.0953934,6.04486557 L37.0953934,12.1999311 L39.1889262,12.1999311 L39.1889262,5.7228 C39.1889262,3.46834098 37.83,2.14425902 35.5162131,2.14425902" id="Fill-4" fill="#FEFEFE"></path>
                    <g id="Group-8" transform="translate(0.000000, 2.180328)">
                        <mask id="mask-2" fill="white">
                            <use xlink:href="#path-1"></use>
                        </mask>
                        <g id="Clip-7"></g>
                        <path d="M3.15861639,0.178506557 L3.15861639,2.14671967 L6.31697705,2.14671967 L6.31697705,11.9890311 L-6.39344262e-05,11.9890311 L-6.39344262e-05,14.0164246 L6.31697705,14.0164246 C7.45564918,14.0164246 8.37374754,13.1218672 8.37374754,11.9765721 L8.37374754,0.178506557 L3.15861639,0.178506557 Z" id="Fill-6" fill="#FEFEFE" mask="url(#mask-2)"></path>
                    </g>
                    <g id="Group-11" transform="translate(143.852459, 0.000000)">
                        <mask id="mask-4" fill="white">
                            <use xlink:href="#path-3"></use>
                        </mask>
                        <g id="Clip-10"></g>
                        <path d="M11.8356369,4.32717213 L11.8356369,2.35895902 L5.51827623,2.35895902 L5.51827623,0.137827869 L3.46182541,0.137827869 L3.46182541,2.35895902 L0.288759836,2.35895902 L0.288759836,4.32717213 L3.46182541,4.32717213 L3.46182541,10.1601721 C3.46182541,11.3051557 4.37992377,12.1997131 5.51827623,12.1997131 L11.8356369,12.1997131 L11.8356369,10.1726311 L5.51827623,10.1726311 L5.51827623,4.32717213 L11.8356369,4.32717213 Z" id="Fill-9" fill="#EF7200" mask="url(#mask-4)"></path>
                    </g>
                    <path d="M21.7033402,8.51411803 C21.7033402,9.65910164 20.7849221,10.5539705 19.6465697,10.5539705 L17.9571025,10.5539705 C16.8184303,10.5539705 15.900332,9.65910164 15.900332,8.51411803 L15.900332,4.32726557 L15.900332,2.35874098 L11.7132664,2.35874098 L11.7132664,4.32726557 L13.8067992,4.32726557 L13.8067992,8.83587213 C13.8067992,11.0903311 15.1657254,12.4144131 17.479832,12.4144131 L18.2508811,12.4144131 C20.564668,12.4144131 21.4095615,10.9831836 21.6298156,10.5539705 L21.7033402,10.5539705 L21.7033402,12.1998066 L23.7601107,12.1998066 L23.7601107,2.35874098 L21.7033402,2.35874098 L21.7033402,8.51411803 Z" id="Fill-12" fill="#FEFEFE"></path>
                    <path d="M108.674459,2.14425902 L107.90309,2.14425902 C105.589303,2.14425902 104.74441,3.57548852 104.524475,4.00501311 L104.450631,4.00501311 L104.450631,2.35886557 L100.263566,2.35886557 L100.263566,4.32707869 L102.39418,4.32707869 L102.39418,12.1999311 L104.450631,12.1999311 L104.450631,6.04486557 C104.450631,4.89957049 105.36873,4.00501311 106.507721,4.00501311 L108.196869,4.00501311 C109.335221,4.00501311 110.253639,4.89957049 110.253639,6.04486557 L110.253639,12.1999311 L112.347172,12.1999311 L112.347172,5.7228 C112.347172,3.46834098 110.988246,2.14425902 108.674459,2.14425902" id="Fill-14" fill="#EF7200"></path>
                    <path d="M80.1552615,8.51411803 C80.1552615,9.69492131 79.2739254,10.5181508 78.098491,10.5181508 L75.7847041,10.5181508 C74.6092697,10.5181508 73.7282533,9.65910164 73.7282533,8.51411803 L73.7282533,6.08056066 C73.7282533,4.89975738 74.6092697,4.07652787 75.7847041,4.07652787 L78.098491,4.07652787 C79.310368,4.07652787 80.1552615,4.89975738 80.1552615,6.08056066 L80.1552615,8.51411803 Z M76.8866139,2.14413443 C73.2503434,2.14413443 71.4141467,3.96938033 71.4141467,7.29749508 C71.4141467,10.661118 73.2503434,12.4505443 76.8866139,12.4505443 C80.4858025,12.4505443 82.3958434,10.5894787 82.3958434,7.29749508 C82.3958434,3.96938033 80.5960893,2.14413443 76.8866139,2.14413443 L76.8866139,2.14413443 Z" id="Fill-16" fill="#EF7200"></path>
                    <path d="M93.3813762,2.14425902 L92.610327,2.14425902 C90.2965402,2.14425902 89.4516467,3.57548852 89.2313926,4.00501311 L89.157868,4.00501311 L89.157868,2.35886557 L84.9708025,2.35886557 L84.9708025,4.32707869 L87.1010975,4.32707869 L87.1010975,12.1999311 L89.157868,12.1999311 L89.157868,6.04486557 C89.157868,4.89957049 90.0759664,4.00501311 91.2146385,4.00501311 L92.9041057,4.00501311 C94.0424582,4.00501311 94.9605566,4.89957049 94.9605566,6.04486557 L94.9605566,12.1999311 L97.0540893,12.1999311 L97.0540893,5.7228 C97.0540893,3.46834098 95.6951631,2.14425902 93.3813762,2.14425902" id="Fill-18" fill="#EF7200"></path>
                    <path d="M120.538227,4.07652787 L122.851694,4.07652787 C124.063891,4.07652787 124.908784,4.89975738 124.908784,6.08056066 L124.908784,6.43906885 L118.481137,6.43906885 L118.481137,6.08056066 C118.481137,4.89975738 119.362793,4.07652787 120.538227,4.07652787 M121.639817,2.14413443 C118.003866,2.14413443 116.16767,3.96938033 116.16767,7.29749508 C116.16767,10.5446262 117.956875,12.4390197 121.39335,12.4390197 C123.551137,12.4390197 126.447686,12.0992 126.447686,12.0992 L126.447686,10.2185115 C126.447686,10.2185115 123.72376,10.5181508 121.273153,10.5181508 L120.538227,10.5181508 C119.362793,10.5181508 118.481137,9.65910164 118.481137,8.51411803 L118.481137,8.10421639 L127.097899,8.10421639 L127.13658,7.63700328 C127.141055,7.5239377 127.149047,7.41367541 127.149047,7.29749508 C127.149047,3.96938033 125.349612,2.14413443 121.639817,2.14413443" id="Fill-20" fill="#EF7200"></path>
                    <path d="M67.8750246,2.58378197 C67.8750246,2.58378197 65.1597295,2.15581475 63.0019426,2.15581475 C59.5654672,2.15581475 57.7759426,4.0502082 57.7759426,7.29733934 C57.7759426,10.5444705 59.5654672,12.4388639 63.0019426,12.4388639 C65.1597295,12.4388639 68.0562787,12.0990443 68.0562787,12.0990443 L68.0562787,10.2183557 C68.0562787,10.2183557 65.3323525,10.5179951 62.8817459,10.5179951 L62.1465,10.5179951 C60.9713852,10.5179951 60.0897295,9.6589459 60.0897295,8.51427377 L60.0897295,7.29733934 L60.0897295,6.08071639 C60.0897295,4.93542131 60.9713852,4.07637213 62.1465,4.07637213 L62.8817459,4.07637213 C63.9673525,4.07637213 64.9247705,4.15268361 65.8572541,4.23771639 L65.8572541,6.31432295 L67.8769426,6.31432295 L67.8769426,2.62022459 L67.8750246,2.62022459 L67.8750246,2.58378197 Z" id="Fill-22" fill="#EF7200"></path>
                    <path d="M140.761837,2.58378197 C140.761837,2.58378197 138.046542,2.15581475 135.888755,2.15581475 C132.45228,2.15581475 130.663075,4.0502082 130.663075,7.29733934 C130.663075,10.5444705 132.45228,12.4388639 135.888755,12.4388639 C138.046542,12.4388639 140.943091,12.0990443 140.943091,12.0990443 L140.943091,10.2183557 C140.943091,10.2183557 138.219165,10.5179951 135.768558,10.5179951 L135.033632,10.5179951 C133.858198,10.5179951 132.976542,9.6589459 132.976542,8.51427377 L132.976542,7.29733934 L132.976542,6.08071639 C132.976542,4.93542131 133.858198,4.07637213 135.033632,4.07637213 L135.768558,4.07637213 C136.854165,4.07637213 137.811583,4.15268361 138.744066,4.23771639 L138.744066,6.31432295 L140.764075,6.31432295 L140.764075,2.62022459 L140.761837,2.62022459 L140.761837,2.58378197 Z" id="Fill-24" fill="#EF7200"></path>
                </g>
            </g>
        </g>
    </g>
</svg>