<?xml version="1.0" encoding="UTF-8"?>
<svg width="140px" height="140px" viewBox="0 0 140 140" version="1.1" xmlns="http://www.w3.org/2000/svg" xmlns:xlink="http://www.w3.org/1999/xlink">
    <!-- Generator: Sketch 54.1 (76490) - https://sketchapp.com -->
    <title>juno-ico</title>
    <desc>Created with Sketch.</desc>
    <g id="Page-1" stroke="none" stroke-width="1" fill="none" fill-rule="evenodd">
        <g id="juno-ico" fill-rule="nonzero">
            <path d="M110.279057,140 L29.7209434,140 C13.3072947,140 0,126.692705 0,110.279057 L0,29.7209434 C0,13.3072947 13.3072947,0 29.7209434,0 L110.279057,0 C126.692705,0 140,13.3072947 140,29.7209434 L140,110.279057 C140,126.692705 126.692705,140 110.279057,140" id="Fill-1" fill="#000000"></path>
            <path d="M69.8120306,18.4443303 C41.3103152,18.4443303 18.125114,41.631852 18.125114,70.131247 C18.125114,98.6329626 41.3103152,121.820484 69.8120306,121.820484 C98.3137462,121.820484 121.501268,98.6329626 121.501268,70.131247 C121.501268,41.631852 98.3137462,18.4443303 69.8120306,18.4443303 M69.8120306,20.764939 C97.0768618,20.764939 119.180659,42.8664158 119.180659,70.131247 C119.180659,97.3960782 97.0768618,119.499876 69.8120306,119.499876 C42.5471996,119.499876 20.4457226,97.3960782 20.4457226,70.131247 C20.4457226,42.8664158 42.5471996,20.764939 69.8120306,20.764939" id="Fill-4" fill="#FEFEFE"></path>
            <polygon id="Fill-6" fill="#FEFEFE" points="68.9862034 105.950074 103.892799 105.950074 103.892799 71.0434782 68.9862034 71.0434782"></polygon>
        </g>
    </g>
</svg>