<?xml version="1.0" encoding="UTF-8"?>
<svg width="100px" height="100px" viewBox="0 0 100 100" version="1.1" xmlns="http://www.w3.org/2000/svg" xmlns:xlink="http://www.w3.org/1999/xlink">
    <!-- Generator: Sketch 54.1 (76490) - https://sketchapp.com -->
    <title>Artboard</title>
    <desc>Created with Sketch.</desc>
    <g id="Artboard" stroke="none" stroke-width="1" fill="none" fill-rule="evenodd">
        <g id="Group-18" transform="translate(15.000000, 15.000000)" fill="#000000">
            <g id="Group-17">
                <g id="Group-2">
                    <g id="Group-10">
                        <path d="M34.9992218,0.333333333 C15.8834115,0.333333333 0.333333333,15.8849679 0.333333333,34.9992218 C0.333333333,54.1150321 15.8834115,69.6666667 34.9992218,69.6666667 C54.1150321,69.6666667 69.6666667,54.1150321 69.6666667,34.9992218 C69.6666667,15.8849679 54.1150321,0.333333333 34.9992218,0.333333333 M34.9992218,1.88974192 C53.2854663,1.88974192 68.1102581,16.7129773 68.1102581,34.9992218 C68.1102581,53.2854663 53.2854663,68.1102581 34.9992218,68.1102581 C16.7129773,68.1102581 1.88974192,53.2854663 1.88974192,34.9992218 C1.88974192,16.7129773 16.7129773,1.88974192 34.9992218,1.88974192" id="Fill-4"></path>
                        <polygon id="Fill-6" points="35 58.3333333 58.3333333 58.3333333 58.3333333 35 35 35"></polygon>
                    </g>
                </g>
            </g>
        </g>
    </g>
</svg>