<?xml version="1.0" encoding="UTF-8"?>
<svg width="16px" height="16px" viewBox="0 0 16 16" version="1.1" xmlns="http://www.w3.org/2000/svg" xmlns:xlink="http://www.w3.org/1999/xlink">
    <!-- Generator: Sketch 54.1 (76490) - https://sketchapp.com -->
    <title>Group</title>
    <desc>Created with Sketch.</desc>
    <g id="Page-1" stroke="none" stroke-width="1" fill="none" fill-rule="evenodd">
        <g id="Desktop-Copy-24" transform="translate(-728.000000, -2601.000000)" fill="#ef7200">
            <g id="Group" transform="translate(728.000000, 2601.000000)">
                <path d="M5.71748328,14.1906988 C11.3780538,14.1906988 14.4736249,9.50102361 14.4736249,5.43455712 C14.4736249,5.30131705 14.4708953,5.16875938 14.4647537,5.03671353 C15.0656135,4.60236113 15.5879965,4.06035895 16,3.44329193 C15.4486147,3.68827624 14.8552614,3.85324826 14.2327351,3.92780128 C14.8680565,3.54684728 15.3559779,2.94394022 15.5859492,2.22519449 C14.9912311,2.57799918 14.3328784,2.83424321 13.6318753,2.97243074 C13.0702539,2.37430053 12.2706428,2 11.3855603,2 C9.68585369,2 8.30756108,3.37829262 8.30756108,5.07731677 C8.30756108,5.31888904 8.33468677,5.55363723 8.38740276,5.77900232 C5.82973932,5.6503685 3.56175788,4.42561758 2.04408353,2.56366862 C1.77948001,3.01832264 1.62713252,3.54684728 1.62713252,4.1105159 C1.62713252,5.17797188 2.17067012,6.12071789 2.99672444,6.67210318 C2.49208407,6.65657841 2.01764023,6.51787908 1.60290706,6.28705473 C1.60222465,6.30002047 1.60222465,6.31281561 1.60222465,6.32646376 C1.60222465,7.81701242 2.66319776,9.06138256 4.07117511,9.34338747 C3.81271325,9.41384605 3.54077385,9.45171967 3.25996315,9.45171967 C3.06172376,9.45171967 2.86877303,9.43192985 2.68145216,9.39610345 C3.07315409,10.6188072 4.20936263,11.5086666 5.5564351,11.5337451 C4.50296847,12.3592876 3.17602702,12.8511328 1.73427051,12.8511328 C1.48587416,12.8511328 1.24088986,12.8368022 1,12.8084823 C2.36208544,13.6812816 3.97922069,14.1906988 5.71748328,14.1906988" id="Fill-1"></path>
            </g>
        </g>
    </g>
</svg>
